<svg xmlns="http://www.w3.org/2000/svg" xmlns:xlink="http://www.w3.org/1999/xlink" viewBox="127.802 2196.879 1933.22 1289.996">
  <defs>
    <style>
      .cls-1 {
        fill: url(#linear-gradient);
      }
    </style>
    <linearGradient id="linear-gradient" x1="0.5" y1="-0.095" x2="0.5" y2="1" gradientUnits="objectBoundingBox">
      <stop offset="0" stop-color="#73e5a1"/>
      <stop offset="1" stop-color="#d4ff66" stop-opacity="0"/>
    </linearGradient>
  </defs>
  <path id="Path_22" data-name="Path 22" class="cls-1" d="M139.537,3280.875H2060.244l11.779-172.971-6.087-942.764v-174.26s-64.179,72.173-233.526,104.393-227.451,99.229-272.767,197.574-104.3,164.724-182.62,103.884c-77.23-59.993-198.107-141.527-338.592-103.884-87.649,23.485-92.062,29.558-166.874,81.911s-208.226,102.413-337.411,102.413-271.365-91.933-394.609-403.143c-.229.637.151,285.651,0,300.73-1,100.237-.957,308.818,0,309.821,1.1,1.155,0,66.119,0,66.119" transform="translate(-11 206)"/>
</svg>
