<svg xmlns="http://www.w3.org/2000/svg" viewBox="1590.5 2696 229 262.948">
  <defs>
    <style>
      .cls-1, .cls-2 {
        fill: none;
        stroke: #73e5a1;
        stroke-linecap: round;
        stroke-miterlimit: 10;
        stroke-width: 11px;
      }

      .cls-2 {
        stroke-dasharray: 20.109 20.109;
      }

      .cls-3 {
        fill: #f2499d;
      }

      .cls-4 {
        fill: #fcfcfc;
      }

      .cls-5 {
        fill: #7a45e5;
      }
    </style>
  </defs>
  <g id="Group_21" data-name="Group 21" transform="translate(1590.5 2696)">
    <g id="Group_20" data-name="Group 20">
      <g id="Group_19" data-name="Group 19">
        <line id="Line_30" data-name="Line 30" class="cls-1" x2="10" transform="translate(86.5 229.5)"/>
        <path id="Path_74" data-name="Path 74" class="cls-2" d="M116.6,229.5h77.9a29.021,29.021,0,0,0,29-29v-7a29.021,29.021,0,0,0-29-29H34.5a29.021,29.021,0,0,1-29-29h0a29.021,29.021,0,0,1,29-29H160.4"/>
        <line id="Line_31" data-name="Line 31" class="cls-1" x2="10" transform="translate(170.5 106.5)"/>
      </g>
    </g>
    <path id="Path_75" data-name="Path 75" class="cls-3" d="M227,43c0,23.7-35.5,66.5-42.5,66.5S141,66.7,141,43a43,43,0,0,1,86,0Z"/>
    <circle id="Ellipse_12" data-name="Ellipse 12" class="cls-4" cx="16.5" cy="16.5" r="16.5" transform="translate(168.5 25.5)"/>
    <ellipse id="Ellipse_13" data-name="Ellipse 13" class="cls-3" cx="24.2" cy="13.3" rx="24.2" ry="13.3" transform="translate(14.6 93.7)"/>
    <ellipse id="Ellipse_14" data-name="Ellipse 14" class="cls-3" cx="25.8" cy="14.1" rx="25.8" ry="14.1" transform="translate(134.4 149.9)"/>
    <path id="Path_76" data-name="Path 76" class="cls-5" d="M78.3,199.1l6.6,13.4a5.207,5.207,0,0,0,4,2.9l14.8,2.2a5.353,5.353,0,0,1,3,9.1L96,237.2a5.154,5.154,0,0,0-1.5,4.7L97,256.7a5.319,5.319,0,0,1-7.8,5.6l-13.2-7a5.508,5.508,0,0,0-5,0l-13.2,7a5.377,5.377,0,0,1-7.8-5.6l2.5-14.8a5.428,5.428,0,0,0-1.5-4.7L40.3,226.8a5.325,5.325,0,0,1,3-9.1l14.8-2.2a5.27,5.27,0,0,0,4-2.9l6.6-13.4A5.312,5.312,0,0,1,78.3,199.1Z"/>
  </g>
</svg>
