<svg xmlns="http://www.w3.org/2000/svg" viewBox="930 2661 328.152 332.252">
  <defs>
    <style>
      .cls-1 {
        fill: #73e5a1;
      }

      .cls-2 {
        fill: #f2499d;
      }

      .cls-3 {
        fill: #d4ff66;
      }

      .cls-4 {
        fill: #fcfcfc;
      }
    </style>
  </defs>
  <g id="Group_18" data-name="Group 18" transform="translate(930 2661.052)">
    <path id="Path_68" data-name="Path 68" class="cls-1" d="M109.5,94H30A29.96,29.96,0,0,0,0,124v79.5a29.96,29.96,0,0,0,30,30H51.7s10.1,21.6,33.8,29.2a2.769,2.769,0,0,0,2.9-4.5c-5.2-5.4-10-13.9-5.7-24.7h26.7a29.96,29.96,0,0,0,30-30V124A29.811,29.811,0,0,0,109.5,94Z"/>
    <path id="Path_69" data-name="Path 69" class="cls-2" d="M186,168.8h79.5a29.96,29.96,0,0,0,30-30V59.3a29.96,29.96,0,0,0-30-30H243.8S233.7,7.7,210,.1a2.769,2.769,0,0,0-2.9,4.5c5.2,5.4,10,13.9,5.7,24.7H186a29.96,29.96,0,0,0-30,30v79.5A29.96,29.96,0,0,0,186,168.8Z"/>
    <path id="Path_70" data-name="Path 70" class="cls-3" d="M159.3,222.7v79.5a29.96,29.96,0,0,0,30,30h79.5a29.96,29.96,0,0,0,30-30V280.5s21.6-10.1,29.2-33.8a2.769,2.769,0,0,0-4.5-2.9c-5.4,5.2-13.9,10-24.7,5.7V222.8a29.96,29.96,0,0,0-30-30H189.3A29.875,29.875,0,0,0,159.3,222.7Z"/>
    <g id="Group_15" data-name="Group 15">
      <path id="Path_71" data-name="Path 71" class="cls-1" d="M206.8,111.4a44.257,44.257,0,0,1,5.7-6.1,14.546,14.546,0,0,1,4.2-2.6,25.512,25.512,0,0,1-10-1.8,20.34,20.34,0,0,1-6.9-4.6,17.266,17.266,0,0,1-4-6.4,22.913,22.913,0,0,1-1.3-7.3,16.44,16.44,0,0,1,1.6-7.2,17.964,17.964,0,0,1,4.7-6.3,24.441,24.441,0,0,1,7.8-4.4A32.211,32.211,0,0,1,219.4,63c2.4,0,4.8.1,6.9.2,2.2.2,4.2.4,6.2.6,1.9.2,3.8.5,5.6.6,1.8.2,3.6.3,5.3.4,1.3.1,2.6.1,3.9.2H264c.7,0,1,.4,1,1.3-.1.3-.2.7-.3,1a.752.752,0,0,1-.7.5c-.3-.1-.6-.1-1-.2a3.751,3.751,0,0,0-1-.1,6.348,6.348,0,0,0-4.3,1.4c-1,.9-1.8,2.6-2.3,5a48.811,48.811,0,0,0-.8,9.7c-.1,4.1-.1,9.2-.1,15.4,0,3.2,0,6.3.1,9.4s.2,5.9.3,8.6c.1,2.6.3,5,.4,7.1.2,2.1.4,3.9.6,5.2.4,2.1,1.1,3.4,2.2,4.1a9.6,9.6,0,0,0,5,1,.666.666,0,0,1,.7.5,3.4,3.4,0,0,1,.1,1,.723.723,0,0,1-.4.6c-.3.2-.5.4-.7.4a57.688,57.688,0,0,1-6.2-.5,36.852,36.852,0,0,0-5.8-.4c-1.3,0-2.7,0-4.2.1-1.6.1-3.1.1-4.7.2s-3.1.2-4.6.3-2.7.2-3.8.2c-.6,0-.9-.4-.9-1.3a2.768,2.768,0,0,1,.1-.9.72.72,0,0,1,.7-.4,9.02,9.02,0,0,0,5-1.2,6.78,6.78,0,0,0,2.6-4.3,35.9,35.9,0,0,0,1-8.5c.1-3.6.2-8.2.2-13.9a1.971,1.971,0,0,0-1.4-1.7,8.619,8.619,0,0,0-3.4-.6c-1.3,0-2.5,0-3.4.1a20.235,20.235,0,0,0-2.6.4,8.063,8.063,0,0,0-4.3,2.7,76.242,76.242,0,0,0-6.8,7c-2.3,2.6-4.5,5.3-6.7,7.9-2.2,2.7-4.3,5.2-6.2,7.6-2,2.4-3.7,4.3-5.2,5.9a4.262,4.262,0,0,1-2.8,1.2c-1.2.1-2.8.1-4.8.1-3.8,0-7-.1-9.7-.2-2.7-.2-5.2-.2-7.5-.2-.9,0-1.3-.4-1.3-1.1a5.073,5.073,0,0,1,.2-.9.924.924,0,0,1,1-.6,8.636,8.636,0,0,1,1.5.1,10.868,10.868,0,0,0,1.8.1,11.943,11.943,0,0,0,4.9-1,20.547,20.547,0,0,0,4.7-3,36.2,36.2,0,0,0,4.8-4.8c1.7-1.9,3.5-4,5.4-6.4Zm35.2-12a9.15,9.15,0,0,0-.1-1.6,13.422,13.422,0,0,1-.1-2.1c0-1.7,0-3.8-.1-6.1,0-2.3-.1-4.6-.2-6.9s-.1-4.5-.2-6.5c0-2-.1-3.6-.2-4.9a2.573,2.573,0,0,0-1.2-2,9.864,9.864,0,0,0-2.9-1.5,18.724,18.724,0,0,0-3.9-.9,31.255,31.255,0,0,0-4.3-.4c-6.3,0-11,1.5-14.3,4.5s-4.8,7-4.8,12a19.054,19.054,0,0,0,1.6,8.2,16.054,16.054,0,0,0,4.4,5.9,18.433,18.433,0,0,0,6.8,3.6,29.306,29.306,0,0,0,8.6,1.2c2.4,0,4.3,0,5.7-.1a21.141,21.141,0,0,0,3.3-.4,2.558,2.558,0,0,0,1.5-.8A1.461,1.461,0,0,0,242,99.4Z"/>
    </g>
    <g id="Group_16" data-name="Group 16">
      <path id="Path_72" data-name="Path 72" class="cls-4" d="M87.3,203.9c-8.3,0-.8-5.2-19.6-31.8-1.6-2.3-12.1-16.4-16-16.4-3,0-2.2,9.2-2.2,10.9,0,23.8,4.9,32.3,4.9,36.6,0,1.1-2.3.8-3.4.8H39.9c-3,0-6.6,1.6-6.6-30,0-41.6,6.2-40.1,8.3-40.1h9.5c4.6,0,13.7,6.7,36.2,35.9.4.4,1,1.5,2,1.5,1.2,0,1-3.6,1-4.8,0-15.8-6.1-29.7-6.1-31.7,0-1.2,2.6-.9,4.9-.9h9.1c2.6,0,8.3-1.5,8.3,40.1,0,31.6-3.6,30-6.6,30H87.3ZM69.7,115.8c4.7,1.3,9.4,2.7,13.9,2.7,7.2,0,5.5-3.5,8-3.5,2.3,0,2.9.7,2.9,1.1,0,.3-1.2,10.3-17.7,10.3a52.909,52.909,0,0,1-13.1-2c-3.8-1-7.2-1.9-10-1.9-4.8,0-4.3,3-4.9,3-1.2,0-3.6.2-3.6-1.2,0-3.7,4.9-9.9,15.3-9.9A43.268,43.268,0,0,1,69.7,115.8Z"/>
    </g>
    <g id="Group_17" data-name="Group 17">
      <path id="Path_73" data-name="Path 73" class="cls-2" d="M259.8,243.4c-2.4,9-3.8,13.1-7.1,19.4a79.145,79.145,0,0,1-11.3,16.3c10.7,7.2,20.3,11,35.6,14a51.3,51.3,0,0,0-8.6,15.6c-17-5.4-26.9-10.5-38.2-19.3-11,8.5-21.8,13.8-39.3,19.4a52.845,52.845,0,0,0-8.2-14.8c17-4.2,27-8.3,36.4-14.9a86.957,86.957,0,0,1-12.3-17.3c-3.2-5.9-4.7-9.4-7.5-18.4h-2a129.162,129.162,0,0,0-13,.6V228.7a103.319,103.319,0,0,0,13.4.7H221v-6.3a34.771,34.771,0,0,0-.6-6.7h17a34.455,34.455,0,0,0-.6,6.6v6.4h24.8a104.974,104.974,0,0,0,13.5-.7V244a121.6,121.6,0,0,0-12.9-.6Zm-44.8,0c2.1,6.4,3.4,9.7,6.6,14.9a61.45,61.45,0,0,0,8.2,11.1,52.987,52.987,0,0,0,7.7-11c2.7-4.8,3.7-7.5,5.9-15Z"/>
    </g>
  </g>
</svg>
